<svg id="Capa_1" enable-background="new 0 0 512.003 512.003" height="512" viewBox="0 0 512.003 512.003" width="512" xmlns="http://www.w3.org/2000/svg"><g><path d="m271.002 157.6v55.35l-15 4.96-15-5.04v-55.27c9.584 3.891 20.399 3.898 30 0z" fill="#eef9ff"/><path d="m271.002 157.6v55.35l-15 4.96v-57.39c5.1 0 10.2-.97 15-2.92z" fill="#c4eaf5"/><path d="m160.14 25.555c5.83-5.886 5.784-15.383-.103-21.213-5.885-5.83-15.383-5.784-21.213.103-64.098 64.719-63.885 168.833 1.098 233.248 5.879 5.827 15.376 5.796 21.213-.093 5.833-5.884 5.791-15.381-.093-21.213-53.158-52.693-53.385-137.84-.902-190.832z" fill="#fff797"/><path d="m373.18 4.445c-5.83-5.887-15.327-5.932-21.213-.103-5.886 5.83-5.932 15.327-.103 21.213 52.456 52.965 52.285 138.109-.902 190.832-5.883 5.832-5.925 15.329-.093 21.213 5.803 5.854 15.299 5.954 21.213.093 64.952-64.385 65.224-168.501 1.098-233.248z" fill="#fee07d"/><path d="m202.584 67.951c5.816-5.899 5.748-15.396-.151-21.213-5.899-5.815-15.396-5.748-21.213.151-40.585 41.168-40.436 107.527 1.166 148.427 5.921 5.821 15.418 5.714 21.212-.18 5.808-5.908 5.727-15.405-.18-21.212-29.682-29.182-29.855-76.536-.834-105.973z" fill="#fff797"/><path d="m330.784 46.889c-5.817-5.9-15.314-5.967-21.213-.151s-5.967 15.313-.151 21.213c28.987 29.403 28.88 76.76-.834 105.973-5.907 5.808-5.988 15.305-.18 21.212 5.808 5.908 15.306 5.988 21.212.18 41.56-40.859 41.798-107.212 1.166-148.427z" fill="#fee07d"/><circle cx="256.002" cy="120.52" fill="#db543e" r="45"/><path d="m301.002 120.52c0 24.81-20.19 45-45 45v-90c24.81 0 45 20.19 45 45z" fill="#bf2413"/><path d="m270.972 212.874h-29.97c-4.231 9.904-114.167 267.47-117.01 274.13h32.62l15.37-36h69.02v36h30v-36h68.99l15.37 36h32.62c-4.013-9.402-111.886-262.142-117.01-274.13zm-29.97 208.129h-56.22l12.81-30h43.41zm0-60h-30.61l30.61-71.71zm30-71.629 30.57 71.63h-30.57zm0 131.629v-30h43.38l12.8 30z" fill="#093968"/><path d="m270.972 212.874h-14.97v274.13h15v-36h68.99l15.37 36h32.62c-4.01-9.401-111.89-262.141-117.01-274.13zm.03 76.5 30.57 71.63h-30.57zm0 131.629v-30h43.38l12.8 30z" fill="#001e49"/><path d="m436.002 482.003h-360c-8.284 0-15 6.716-15 15s6.716 15 15 15h360c8.284 0 15-6.716 15-15s-6.716-15-15-15z" fill="#99e875"/><path d="m451.002 497.003c0 8.28-6.72 15-15 15h-180v-30h180c8.28 0 15 6.72 15 15z" fill="#64b75c"/></g></svg>